<svg width="160" height="160" viewBox="0 0 160 130" fill="none" xmlns="http://www.w3.org/2000/svg">
<rect width="160" height="130" fill="none"/>
<line x1="20.063" y1="41.8287" x2="50.063" y2="17.8287" stroke="#BBB2B2" stroke-width="3"/>
<line x1="22.063" y1="75.8287" x2="52.063" y2="51.8287" stroke="#BBB2B2" stroke-width="3"/>
<line x1="51.1" y1="78.2" x2="19.1" y2="54.2" stroke="#BBB2B2" stroke-width="3"/>
<line x1="52.1" y1="114.2" x2="20.1" y2="90.2" stroke="#BBB2B2" stroke-width="3"/>
<line x1="53.7488" y1="112.827" x2="12.7488" y2="50.8274" stroke="#BBB2B2" stroke-width="3"/>
<line x1="14.7456" y1="78.1775" x2="54.7456" y2="17.1775" stroke="#BBB2B2" stroke-width="3"/>
<line x1="17" y1="48.5" x2="49" y2="48.5" stroke="#BBB2B2" stroke-width="3"/>
<line x1="18" y1="83.5" x2="50" y2="83.5" stroke="#BBB2B2" stroke-width="3"/>
<line x1="61" y1="13.5" x2="93" y2="13.5" stroke="#BBB2B2" stroke-width="3"/>
<line x1="60.9878" y1="11.8711" x2="100.988" y2="46.8711" stroke="#BBB2B2" stroke-width="3"/>
<line x1="61.3104" y1="12.2699" x2="100.31" y2="82.2699" stroke="#BBB2B2" stroke-width="3"/>
<line x1="59.3985" y1="12.4577" x2="97.3985" y2="110.458" stroke="#BBB2B2" stroke-width="3"/>
<line y1="-1.5" x2="32" y2="-1.5" transform="matrix(1 -3.50599e-09 -3.2364e-09 -1 61 117)" stroke="#BBB2B2" stroke-width="3"/>
<line y1="-1.5" x2="53.1507" y2="-1.5" transform="matrix(0.752577 -0.658505 -0.658505 -0.752577 60 119)" stroke="#BBB2B2" stroke-width="3"/>
<line y1="-1.5" x2="80.1311" y2="-1.5" transform="matrix(0.486702 -0.873568 -0.873568 -0.486702 60 119)" stroke="#BBB2B2" stroke-width="3"/>
<line y1="-1.5" x2="105.109" y2="-1.5" transform="matrix(0.361528 -0.932361 -0.932361 -0.361528 58 119)" stroke="#BBB2B2" stroke-width="3"/>
<line x1="62" y1="48.5" x2="94" y2="48.5" stroke="#BBB2B2" stroke-width="3"/>
<line x1="62" y1="83.5" x2="94" y2="83.5" stroke="#BBB2B2" stroke-width="3"/>
<line x1="58.9393" y1="48.9393" x2="95.9393" y2="11.9393" stroke="#BBB2B2" stroke-width="3"/>
<line x1="59.9438" y1="49.8341" x2="101.944" y2="83.8341" stroke="#BBB2B2" stroke-width="3"/>
<line x1="59.3012" y1="49.2537" x2="98.3012" y2="117.254" stroke="#BBB2B2" stroke-width="3"/>
<line y1="-1.5" x2="52.3259" y2="-1.5" transform="matrix(0.707107 0.707107 0.707107 -0.707107 60 82)" stroke="#BBB2B2" stroke-width="3"/>
<line x1="60.0811" y1="81.8144" x2="100.081" y2="50.8144" stroke="#BBB2B2" stroke-width="3"/>
<line x1="60.6888" y1="81.2715" x2="95.6888" y2="18.2715" stroke="#BBB2B2" stroke-width="3"/>
<line y1="-1.5" x2="38.4187" y2="-1.5" transform="matrix(-0.780869 -0.624695 -0.624695 0.780869 138 43)" stroke="#BBB2B2" stroke-width="3"/>
<line y1="-1.5" x2="38.4187" y2="-1.5" transform="matrix(-0.780869 -0.624695 -0.624695 0.780869 136 77)" stroke="#BBB2B2" stroke-width="3"/>
<line y1="-1.5" x2="40" y2="-1.5" transform="matrix(0.8 -0.6 -0.6 -0.8 107 77)" stroke="#BBB2B2" stroke-width="3"/>
<line y1="-1.5" x2="40" y2="-1.5" transform="matrix(0.8 -0.6 -0.6 -0.8 106 113)" stroke="#BBB2B2" stroke-width="3"/>
<line y1="-1.5" x2="74.3303" y2="-1.5" transform="matrix(0.551592 -0.834114 -0.834114 -0.551592 104 112)" stroke="#BBB2B2" stroke-width="3"/>
<line y1="-1.5" x2="72.9452" y2="-1.5" transform="matrix(-0.548357 -0.836245 -0.836244 0.548357 143 79)" stroke="#BBB2B2" stroke-width="3"/>
<line y1="-1.5" x2="32" y2="-1.5" transform="matrix(-1 3.40395e-09 3.33341e-09 1 142 50)" stroke="#BBB2B2" stroke-width="3"/>
<line y1="-1.5" x2="32" y2="-1.5" transform="matrix(-1 3.3685e-09 3.3685e-09 1 141 85)" stroke="#BBB2B2" stroke-width="3"/>
<circle cx="12.5" cy="48.5" r="12.5" fill="#C160EE"/>
<circle cx="57.5" cy="12.5" r="12.5" fill="#51A1FF"/>
<circle cx="57.5" cy="47.5" r="12.5" fill="#2CCD6D"/>
<circle cx="57.5" cy="12.5" r="12.5" fill="#2CCD6D"/>
<circle cx="57.5" cy="117.5" r="12.5" fill="#2CCD6D"/>
<circle cx="57.5" cy="82.5" r="12.5" fill="#2CCD6D"/>
<circle cx="102.5" cy="12.5" r="12.5" fill="#51A1FF"/>
<circle cx="102.5" cy="47.5" r="12.5" fill="#51A1FF"/>
<circle cx="102.5" cy="12.5" r="12.5" fill="#51A1FF"/>
<circle cx="102.5" cy="117.5" r="12.5" fill="#51A1FF"/>
<circle cx="102.5" cy="82.5" r="12.5" fill="#51A1FF"/>
<circle cx="12.5" cy="83.5" r="12.5" fill="#C160EE"/>
<circle cx="147.5" cy="48.5" r="12.5" fill="#F018C1"/>
<circle cx="147.5" cy="83.5" r="12.5" fill="#F018C1"/>
</svg>
